{
  "accessors": [
    {
      "bufferView": 2,
      "componentType": 5126,
      "count": 4913,
      "max": [
        120.53581237792969,
        409.7414855957031,
        107.7802505493164
      ],
      "min": [
        -120.53581237792969,
        -225.86224365234375,
        -3.2174532413482666
      ],
      "type": "VEC3"
    },
    {
      "bufferView": 2,
      "byteOffset": 58956,
      "componentType": 5126,
      "count": 4913,
      "max": [
        0.9999983310699463,
        0.9969130754470825,
        0.9999972581863403
      ],
      "min": [
        -0.9999983310699463,
        -0.9991851449012756,
        -0.9999943971633911
      ],
      "type": "VEC3"
    },
    {
      "bufferView": 1,
      "componentType": 5126,
      "count": 4913,
      "max": [
        0.9879414439201355,
        0.992685854434967
      ],
      "min": [
        0.0065628583543002605,
        0.053426310420036316
      ],
      "type": "VEC2"
    },
    {
      "bufferView": 0,
      "componentType": 5125,
      "count": 23664,
      "type": "SCALAR"
    }
  ],
  "asset": {
    "extras": {
      "author": "EWTube0 (https://sketchfab.com/EWTube0)",
      "license": "CC-BY-4.0 (http://creativecommons.org/licenses/by/4.0/)",
      "source": "https://sketchfab.com/3d-models/ice-scream-horror-game-crocodile-89899c28245e4ee68e098e54de6ef4ed",
      "title": "Ice Scream Horror Game: Crocodile"
    },
    "generator": "Sketchfab-12.68.0",
    "version": "2.0"
  },
  "bufferViews": [
    {
      "buffer": 0,
      "byteLength": 94656,
      "name": "floatBufferViews",
      "target": 34963
    },
    {
      "buffer": 0,
      "byteLength": 39304,
      "byteOffset": 94656,
      "byteStride": 8,
      "name": "floatBufferViews",
      "target": 34962
    },
    {
      "buffer": 0,
      "byteLength": 117912,
      "byteOffset": 133960,
      "byteStride": 12,
      "name": "floatBufferViews",
      "target": 34962
    }
  ],
  "buffers": [
    {
      "byteLength": 251872,
      "uri": "scene.bin"
    }
  ],
  "extensionsRequired": [
    "KHR_materials_pbrSpecularGlossiness"
  ],
  "extensionsUsed": [
    "KHR_materials_pbrSpecularGlossiness"
  ],
  "images": [
    {
      "uri": "textures/IS_Cocodrilo_diffuse.png"
    }
  ],
  "materials": [
    {
      "doubleSided": true,
      "extensions": {
        "KHR_materials_pbrSpecularGlossiness": {
          "diffuseFactor": [
            1.0,
            1.0,
            1.0,
            1.0
          ],
          "diffuseTexture": {
            "index": 0
          },
          "glossinessFactor": 0.4,
          "specularFactor": [
            0.0,
            0.0,
            0.0
          ]
        }
      },
      "name": "IS_Cocodrilo"
    }
  ],
  "meshes": [
    {
      "name": "Crocodile_IS_Cocodrilo_0",
      "primitives": [
        {
          "attributes": {
            "NORMAL": 1,
            "POSITION": 0,
            "TEXCOORD_0": 2
          },
          "indices": 3,
          "material": 0,
          "mode": 4
        }
      ]
    }
  ],
  "nodes": [
    {
      "children": [
        1
      ],
      "matrix": [
        1.0,
        0.0,
        0.0,
        0.0,
        0.0,
        2.220446049250313e-16,
        -1.0,
        0.0,
        0.0,
        1.0,
        2.220446049250313e-16,
        0.0,
        0.0,
        0.0,
        0.0,
        1.0
      ],
      "name": "Sketchfab_model"
    },
    {
      "children": [
        2
      ],
      "matrix": [
        1.0,
        0.0,
        0.0,
        0.0,
        0.0,
        0.0,
        1.0,
        0.0,
        0.0,
        -1.0,
        0.0,
        0.0,
        0.0,
        0.0,
        0.0,
        1.0
      ],
      "name": "471fe3865795436691d5e838201f5a0e.fbx"
    },
    {
      "children": [
        3
      ],
      "name": "RootNode"
    },
    {
      "children": [
        4
      ],
      "name": "Crocodile"
    },
    {
      "mesh": 0,
      "name": "Crocodile_IS_Cocodrilo_0"
    }
  ],
  "samplers": [
    {
      "magFilter": 9729,
      "minFilter": 9987,
      "wrapS": 10497,
      "wrapT": 10497
    }
  ],
  "scene": 0,
  "scenes": [
    {
      "name": "Sketchfab_Scene",
      "nodes": [
        0
      ]
    }
  ],
  "textures": [
    {
      "sampler": 0,
      "source": 0
    }
  ]
}
