{
  "accessors": [
    {
      "bufferView": 2,
      "componentType": 5126,
      "count": 5487,
      "max": [
        94.33734130859375,
        195.59249877929688,
        181.29298400878906
      ],
      "min": [
        -94.33734130859375,
        -191.3919677734375,
        41.7678337097168
      ],
      "type": "VEC3"
    },
    {
      "bufferView": 2,
      "byteOffset": 65844,
      "componentType": 5126,
      "count": 5487,
      "max": [
        1.0,
        1.0,
        1.0
      ],
      "min": [
        -1.0,
        -1.0,
        -1.0
      ],
      "type": "VEC3"
    },
    {
      "bufferView": 1,
      "componentType": 5126,
      "count": 5487,
      "max": [
        0.9906983375549316,
        0.9895808100700378
      ],
      "min": [
        0.006855927407741547,
        0.007516756188124418
      ],
      "type": "VEC2"
    },
    {
      "bufferView": 0,
      "componentType": 5125,
      "count": 14046,
      "type": "SCALAR"
    },
    {
      "bufferView": 2,
      "byteOffset": 131688,
      "componentType": 5126,
      "count": 252,
      "max": [
        13.234262466430664,
        42.06468963623047,
        43.369049072265625
      ],
      "min": [
        -11.060742378234863,
        -41.64567947387695,
        -40.34131622314453
      ],
      "type": "VEC3"
    },
    {
      "bufferView": 2,
      "byteOffset": 134712,
      "componentType": 5126,
      "count": 252,
      "max": [
        1.0,
        0.965925931930542,
        0.9659258723258972
      ],
      "min": [
        -1.0,
        -0.9659258723258972,
        -0.9659260511398315
      ],
      "type": "VEC3"
    },
    {
      "bufferView": 1,
      "byteOffset": 43896,
      "componentType": 5126,
      "count": 252,
      "max": [
        0.7928385138511658,
        0.6871761083602905
      ],
      "min": [
        0.31681352853775024,
        0.30057451128959656
      ],
      "type": "VEC2"
    },
    {
      "bufferView": 0,
      "byteOffset": 56184,
      "componentType": 5125,
      "count": 792,
      "type": "SCALAR"
    },
    {
      "bufferView": 2,
      "byteOffset": 137736,
      "componentType": 5126,
      "count": 252,
      "max": [
        11.060741424560547,
        41.64567947387695,
        43.369049072265625
      ],
      "min": [
        -13.234260559082031,
        -42.06468963623047,
        -40.34131622314453
      ],
      "type": "VEC3"
    },
    {
      "bufferView": 2,
      "byteOffset": 140760,
      "componentType": 5126,
      "count": 252,
      "max": [
        1.0,
        0.9659258723258972,
        0.9659258723258972
      ],
      "min": [
        -1.0,
        -0.965925931930542,
        -0.9659260511398315
      ],
      "type": "VEC3"
    },
    {
      "bufferView": 1,
      "byteOffset": 45912,
      "componentType": 5126,
      "count": 252,
      "max": [
        0.7928385138511658,
        0.6871761083602905
      ],
      "min": [
        0.31681352853775024,
        0.30057451128959656
      ],
      "type": "VEC2"
    },
    {
      "bufferView": 0,
      "byteOffset": 59352,
      "componentType": 5125,
      "count": 792,
      "type": "SCALAR"
    },
    {
      "bufferView": 2,
      "byteOffset": 143784,
      "componentType": 5126,
      "count": 252,
      "max": [
        13.234262466430664,
        42.06468963623047,
        43.369049072265625
      ],
      "min": [
        -11.060742378234863,
        -41.64567947387695,
        -40.34131622314453
      ],
      "type": "VEC3"
    },
    {
      "bufferView": 2,
      "byteOffset": 146808,
      "componentType": 5126,
      "count": 252,
      "max": [
        1.0,
        0.965925931930542,
        0.9659258723258972
      ],
      "min": [
        -1.0,
        -0.9659258723258972,
        -0.9659260511398315
      ],
      "type": "VEC3"
    },
    {
      "bufferView": 1,
      "byteOffset": 47928,
      "componentType": 5126,
      "count": 252,
      "max": [
        0.7928385138511658,
        0.6871761083602905
      ],
      "min": [
        0.31681352853775024,
        0.30057451128959656
      ],
      "type": "VEC2"
    },
    {
      "bufferView": 0,
      "byteOffset": 62520,
      "componentType": 5125,
      "count": 792,
      "type": "SCALAR"
    },
    {
      "bufferView": 2,
      "byteOffset": 149832,
      "componentType": 5126,
      "count": 252,
      "max": [
        11.060741424560547,
        41.64567947387695,
        43.369049072265625
      ],
      "min": [
        -13.234260559082031,
        -42.06468963623047,
        -40.34131622314453
      ],
      "type": "VEC3"
    },
    {
      "bufferView": 2,
      "byteOffset": 152856,
      "componentType": 5126,
      "count": 252,
      "max": [
        1.0,
        0.9659258723258972,
        0.9659258723258972
      ],
      "min": [
        -1.0,
        -0.965925931930542,
        -0.9659260511398315
      ],
      "type": "VEC3"
    },
    {
      "bufferView": 1,
      "byteOffset": 49944,
      "componentType": 5126,
      "count": 252,
      "max": [
        0.7928385138511658,
        0.6871761083602905
      ],
      "min": [
        0.31681352853775024,
        0.30057451128959656
      ],
      "type": "VEC2"
    },
    {
      "bufferView": 0,
      "byteOffset": 65688,
      "componentType": 5125,
      "count": 792,
      "type": "SCALAR"
    },
    {
      "bufferView": 2,
      "byteOffset": 155880,
      "componentType": 5126,
      "count": 8384,
      "max": [
        95.09973907470703,
        196.21348571777344,
        182.0863037109375
      ],
      "min": [
        -95.09973907470703,
        -192.01087951660156,
        -0.5175016522407532
      ],
      "type": "VEC3"
    },
    {
      "bufferView": 2,
      "byteOffset": 256488,
      "componentType": 5126,
      "count": 8384,
      "max": [
        1.0,
        1.0,
        1.0
      ],
      "min": [
        -1.0,
        -1.0,
        -1.0
      ],
      "type": "VEC3"
    },
    {
      "bufferView": 1,
      "byteOffset": 51960,
      "componentType": 5126,
      "count": 8384,
      "max": [
        0.9906983375549316,
        0.9895808100700378
      ],
      "min": [
        0.006855927407741547,
        0.007516756188124418
      ],
      "type": "VEC2"
    },
    {
      "bufferView": 0,
      "byteOffset": 68856,
      "componentType": 5125,
      "count": 19518,
      "type": "SCALAR"
    },
    {
      "bufferView": 2,
      "byteOffset": 357096,
      "componentType": 5126,
      "count": 25,
      "max": [
        297.859130859375,
        297.859130859375,
        0.0
      ],
      "min": [
        -297.859130859375,
        -297.859130859375,
        0.0
      ],
      "type": "VEC3"
    },
    {
      "bufferView": 2,
      "byteOffset": 357396,
      "componentType": 5126,
      "count": 25,
      "max": [
        0.0,
        0.0,
        1.0
      ],
      "min": [
        0.0,
        0.0,
        1.0
      ],
      "type": "VEC3"
    },
    {
      "bufferView": 1,
      "byteOffset": 119032,
      "componentType": 5126,
      "count": 25,
      "max": [
        1.0,
        1.0
      ],
      "min": [
        0.0,
        0.0
      ],
      "type": "VEC2"
    },
    {
      "bufferView": 0,
      "byteOffset": 146928,
      "componentType": 5125,
      "count": 96,
      "type": "SCALAR"
    }
  ],
  "asset": {
    "extras": {
      "author": "Willy Decarpentrie (https://sketchfab.com/skudgee)",
      "license": "CC-BY-4.0 (http://creativecommons.org/licenses/by/4.0/)",
      "source": "https://sketchfab.com/3d-models/jeep-willys-a28600c16b9e44bcb160ede0d199180d",
      "title": "Jeep Willys"
    },
    "generator": "Sketchfab-12.68.0",
    "version": "2.0"
  },
  "bufferViews": [
    {
      "buffer": 0,
      "byteLength": 147312,
      "name": "floatBufferViews",
      "target": 34963
    },
    {
      "buffer": 0,
      "byteLength": 119232,
      "byteOffset": 147312,
      "byteStride": 8,
      "name": "floatBufferViews",
      "target": 34962
    },
    {
      "buffer": 0,
      "byteLength": 357696,
      "byteOffset": 266544,
      "byteStride": 12,
      "name": "floatBufferViews",
      "target": 34962
    }
  ],
  "buffers": [
    {
      "byteLength": 624240,
      "uri": "scene.bin"
    }
  ],
  "images": [
    {
      "uri": "textures/Willys_baseColor.png"
    },
    {
      "uri": "textures/Ground_baseColor.png"
    }
  ],
  "materials": [
    {
      "doubleSided": true,
      "name": "Willys",
      "pbrMetallicRoughness": {
        "baseColorTexture": {
          "index": 0
        },
        "metallicFactor": 0.0,
        "roughnessFactor": 0.8929713596
      }
    },
    {
      "name": "Outline",
      "pbrMetallicRoughness": {
        "baseColorFactor": [
          0.0,
          0.0,
          0.0,
          1.0
        ],
        "metallicFactor": 0.0,
        "roughnessFactor": 0.8929713596
      }
    },
    {
      "alphaMode": "BLEND",
      "doubleSided": true,
      "name": "Ground",
      "pbrMetallicRoughness": {
        "baseColorFactor": [
          0.262745,
          0.262745,
          0.262745,
          0.14195884146341464
        ],
        "baseColorTexture": {
          "index": 1
        },
        "metallicFactor": 0.0,
        "roughnessFactor": 0.8929713596
      }
    }
  ],
  "meshes": [
    {
      "name": "hull_Willys_0",
      "primitives": [
        {
          "attributes": {
            "NORMAL": 1,
            "POSITION": 0,
            "TEXCOORD_0": 2
          },
          "indices": 3,
          "material": 0,
          "mode": 4
        }
      ]
    },
    {
      "name": "wheel1_Willys_0",
      "primitives": [
        {
          "attributes": {
            "NORMAL": 5,
            "POSITION": 4,
            "TEXCOORD_0": 6
          },
          "indices": 7,
          "material": 0,
          "mode": 4
        }
      ]
    },
    {
      "name": "wheel4_Willys_0",
      "primitives": [
        {
          "attributes": {
            "NORMAL": 9,
            "POSITION": 8,
            "TEXCOORD_0": 10
          },
          "indices": 11,
          "material": 0,
          "mode": 4
        }
      ]
    },
    {
      "name": "wheel2_Willys_0",
      "primitives": [
        {
          "attributes": {
            "NORMAL": 13,
            "POSITION": 12,
            "TEXCOORD_0": 14
          },
          "indices": 15,
          "material": 0,
          "mode": 4
        }
      ]
    },
    {
      "name": "wheel3_Willys_0",
      "primitives": [
        {
          "attributes": {
            "NORMAL": 17,
            "POSITION": 16,
            "TEXCOORD_0": 18
          },
          "indices": 19,
          "material": 0,
          "mode": 4
        }
      ]
    },
    {
      "name": "Outline_Outline_0",
      "primitives": [
        {
          "attributes": {
            "NORMAL": 21,
            "POSITION": 20,
            "TEXCOORD_0": 22
          },
          "indices": 23,
          "material": 1,
          "mode": 4
        }
      ]
    },
    {
      "name": "Plane001_Ground_0",
      "primitives": [
        {
          "attributes": {
            "NORMAL": 25,
            "POSITION": 24,
            "TEXCOORD_0": 26
          },
          "indices": 27,
          "material": 2,
          "mode": 4
        }
      ]
    }
  ],
  "nodes": [
    {
      "children": [
        1
      ],
      "matrix": [
        0.008523396216332912,
        0.0,
        0.0,
        0.0,
        0.0,
        1.8925741454751482e-18,
        -0.008523396216332912,
        0.0,
        0.0,
        0.008523396216332912,
        1.8925741454751482e-18,
        0.0,
        0.0,
        0.0,
        0.0,
        1.0
      ],
      "name": "Sketchfab_model"
    },
    {
      "children": [
        2
      ],
      "matrix": [
        1.0,
        0.0,
        0.0,
        0.0,
        0.0,
        0.0,
        1.0,
        0.0,
        0.0,
        -1.0,
        0.0,
        0.0,
        0.0,
        0.0,
        0.0,
        1.0
      ],
      "name": "3d2785c053da49d592f58b41bea82661.fbx"
    },
    {
      "children": [
        3,
        16
      ],
      "name": "RootNode"
    },
    {
      "children": [
        4,
        14
      ],
      "matrix": [
        1.0,
        0.0,
        0.0,
        0.0,
        0.0,
        2.220446049250313e-16,
        -1.0,
        0.0,
        0.0,
        1.0,
        2.220446049250313e-16,
        0.0,
        0.0,
        0.0,
        0.0,
        1.0
      ],
      "name": "MyCar"
    },
    {
      "children": [
        5,
        6,
        8,
        10,
        12
      ],
      "name": "hull"
    },
    {
      "mesh": 0,
      "name": "hull_Willys_0"
    },
    {
      "children": [
        7
      ],
      "matrix": [
        1.0,
        0.0,
        0.0,
        0.0,
        0.0,
        1.0,
        0.0,
        0.0,
        0.0,
        0.0,
        1.0,
        0.0,
        -72.0,
        136.94259643554688,
        40.443634033203125,
        1.0
      ],
      "name": "wheel1"
    },
    {
      "mesh": 1,
      "name": "wheel1_Willys_0"
    },
    {
      "children": [
        9
      ],
      "matrix": [
        1.0,
        0.0,
        0.0,
        0.0,
        0.0,
        1.0,
        0.0,
        0.0,
        0.0,
        0.0,
        1.0,
        0.0,
        72.0,
        -99.13323974609375,
        40.443634033203125,
        1.0
      ],
      "name": "wheel4"
    },
    {
      "mesh": 2,
      "name": "wheel4_Willys_0"
    },
    {
      "children": [
        11
      ],
      "matrix": [
        1.0,
        0.0,
        0.0,
        0.0,
        0.0,
        1.0,
        0.0,
        0.0,
        0.0,
        0.0,
        1.0,
        0.0,
        -72.0,
        -99.55224609375,
        40.44364547729492,
        1.0
      ],
      "name": "wheel2"
    },
    {
      "mesh": 3,
      "name": "wheel2_Willys_0"
    },
    {
      "children": [
        13
      ],
      "matrix": [
        1.0,
        0.0,
        0.0,
        0.0,
        0.0,
        1.0,
        0.0,
        0.0,
        0.0,
        0.0,
        1.0,
        0.0,
        72.0,
        137.36160278320313,
        40.44364547729492,
        1.0
      ],
      "name": "wheel3"
    },
    {
      "mesh": 4,
      "name": "wheel3_Willys_0"
    },
    {
      "children": [
        15
      ],
      "name": "Outline"
    },
    {
      "mesh": 5,
      "name": "Outline_Outline_0"
    },
    {
      "children": [
        17
      ],
      "matrix": [
        1.0,
        0.0,
        0.0,
        0.0,
        0.0,
        2.220446049250313e-16,
        -1.0,
        0.0,
        0.0,
        1.0,
        2.220446049250313e-16,
        0.0,
        0.0,
        -2.633350372314453,
        0.0,
        1.0
      ],
      "name": "Plane001"
    },
    {
      "mesh": 6,
      "name": "Plane001_Ground_0"
    }
  ],
  "samplers": [
    {
      "magFilter": 9729,
      "minFilter": 9987,
      "wrapS": 10497,
      "wrapT": 10497
    }
  ],
  "scene": 0,
  "scenes": [
    {
      "name": "Sketchfab_Scene",
      "nodes": [
        0
      ]
    }
  ],
  "textures": [
    {
      "sampler": 0,
      "source": 0
    },
    {
      "sampler": 0,
      "source": 1
    }
  ]
}
